<?xml version="1.0" encoding="iso-8859-1"?>
<!-- Generator: Adobe Illustrator 19.0.0, SVG Export Plug-In . SVG Version: 6.00 Build 0)  -->
<svg xmlns="http://www.w3.org/2000/svg" xmlns:xlink="http://www.w3.org/1999/xlink" version="1.1" id="Capa_1" x="0px" y="0px" viewBox="0 0 512 512" style="enable-background:new 0 0 512 512;" xml:space="preserve" width="512px" height="512px">
<g>
	<g>
		<path d="M502.154,290.462h-15.37c10.113-17.857,15.563-38.265,15.563-59.077c0-65.15-52.051-118.154-116.03-118.154    c-38.831,0-74.656,19.627-96.118,51.946c-11.332-8.166-24.823-12.562-39.025-12.562h-48.073v-21.43    c11.243-4.101,19.306-15.013,19.306-27.801c0-16.288-13.078-29.539-29.153-29.539s-29.152,13.251-29.152,29.539    c0,12.787,8.063,23.7,19.306,27.801v21.43h-57.532v-21.43c11.243-4.101,19.306-15.013,19.306-27.801    c0-16.288-13.078-29.539-29.153-29.539s-29.152,13.251-29.152,29.539c0,12.787,8.063,23.7,19.306,27.801v21.43H48.652v-21.43    c11.243-4.101,19.306-15.013,19.306-27.801c0-16.288-13.078-29.539-29.152-29.539S9.653,87.097,9.653,103.385    c0,12.787,8.063,23.7,19.306,27.801v21.43H9.846c-5.438,0-9.846,4.409-9.846,9.846v196.923c0,5.437,4.408,9.846,9.846,9.846    h154.257v19.692c0,27.146,21.738,49.231,48.459,49.231c26.721,0,48.459-22.085,48.459-49.231v-19.692h241.133    c5.438,0,9.846-4.409,9.846-9.846v-59.077C512,294.871,507.592,290.462,502.154,290.462z M193.254,93.538    c5.216,0,9.46,4.417,9.46,9.846c0,5.429-4.244,9.846-9.46,9.846s-9.46-4.417-9.46-9.846    C183.794,97.955,188.039,93.538,193.254,93.538z M116.03,93.538c5.216,0,9.46,4.417,9.46,9.846c0,5.429-4.244,9.846-9.46,9.846    s-9.46-4.417-9.46-9.846C106.57,97.955,110.814,93.538,116.03,93.538z M38.806,93.538c5.216,0,9.46,4.417,9.46,9.846    c0,5.429-4.244,9.846-9.46,9.846s-9.46-4.417-9.46-9.846C29.345,97.955,33.589,93.538,38.806,93.538z M164.103,349.538H19.692    v-39.385h144.411V349.538z M251.173,231.385c-5.438,0-9.846,4.409-9.846,9.846v147.692c0,16.287-12.904,29.538-28.767,29.538    c-15.862,0-28.767-13.251-28.767-29.538V241.231c0-5.437-4.408-9.846-9.846-9.846s-9.846,4.409-9.846,9.846v49.231H19.692v-19.692    h38.42c5.438,0,9.846-4.409,9.846-9.846c0-5.437-4.408-9.846-9.846-9.846h-38.42v-78.769h231.481    c10.808,0,21.039,3.633,29.426,10.322c-5.361,12.016-8.669,24.776-9.842,38.043c-0.479,5.416,3.524,10.195,8.941,10.674    c0.295,0.026,0.588,0.039,0.878,0.039c5.046,0,9.344-3.859,9.796-8.981c1.171-13.243,4.884-25.876,11.029-37.558    c0.002-0.004,0.005-0.008,0.007-0.012c16.846-32.025,49.373-51.912,84.908-51.912c53.121,0,96.338,44.169,96.338,98.462    c0,21.312-6.811,42.112-19.263,59.077H261.02v-49.231C261.02,235.794,256.611,231.385,251.173,231.385z M492.308,349.538H261.02    v-39.385h231.288V349.538z" fill="#FFFFFF"/>
	</g>
</g>
<g>
	<g>
		<path d="M94.031,253.962c-1.831-1.832-4.372-2.885-6.961-2.885s-5.13,1.053-6.961,2.885c-1.831,1.832-2.885,4.372-2.885,6.961    s1.054,5.13,2.885,6.96c1.831,1.831,4.372,2.886,6.961,2.886s5.13-1.054,6.961-2.886c1.831-1.83,2.885-4.371,2.885-6.96    S95.862,255.793,94.031,253.962z" fill="#FFFFFF"/>
	</g>
</g>
<g>
</g>
<g>
</g>
<g>
</g>
<g>
</g>
<g>
</g>
<g>
</g>
<g>
</g>
<g>
</g>
<g>
</g>
<g>
</g>
<g>
</g>
<g>
</g>
<g>
</g>
<g>
</g>
<g>
</g>
</svg>
