<?xml version="1.0" encoding="iso-8859-1"?>
<!-- Generator: Adobe Illustrator 19.0.0, SVG Export Plug-In . SVG Version: 6.00 Build 0)  -->
<svg xmlns="http://www.w3.org/2000/svg" xmlns:xlink="http://www.w3.org/1999/xlink" version="1.1" id="Capa_1" x="0px" y="0px" viewBox="0 0 508.075 508.075" style="enable-background:new 0 0 508.075 508.075;" xml:space="preserve" width="512px" height="512px">
<g>
	<g>
		<path d="M467.275,67.188c-26.4-26.4-61.5-40.9-98.8-40.9c-72.7,0-114.4,56.6-114.4,56.6s-41-56.5-114.4-56.5    c-37.3,0-72.4,14.5-98.8,40.9c-54.5,54.5-54.5,143.1,0,197.5l213.2,217l213.2-216.9    C521.675,210.287,521.675,121.688,467.275,67.188z M455.575,253.188l-201.5,205l-201.5-205.1c-48-48-48-126.2,0-174.3    c23.3-23.3,54.2-36.1,87.1-36.1c69.6,0,114.4,63.4,114.4,63.4s45.5-63.4,114.4-63.4c32.9,0,63.9,12.8,87.1,36.1    C503.675,126.887,503.675,205.087,455.575,253.188z" fill="#0066b3"/>
	</g>
</g>
<g>
	<g>
		<path d="M287.575,215.287v-57.5h-65.7v57.5h-57.5v65.7h57.5v57.5h65.7v-57.5h57.5v-65.7H287.575z M328.675,264.587h-57.5v57.5    h-32.9v-57.5h-57.5v-32.9h57.5v-57.5h32.9v57.5h57.5V264.587z" fill="#0066b3"/>
	</g>
</g>
<g>
	<g>
		<path d="M49.275,166.988h16.4c0-41.3,33.6-74.9,74.9-74.9v-16.4C90.275,75.688,49.275,116.587,49.275,166.988z" fill="#0066b3"/>
	</g>
</g>
<g>
</g>
<g>
</g>
<g>
</g>
<g>
</g>
<g>
</g>
<g>
</g>
<g>
</g>
<g>
</g>
<g>
</g>
<g>
</g>
<g>
</g>
<g>
</g>
<g>
</g>
<g>
</g>
<g>
</g>
</svg>
