<?xml version="1.0" encoding="iso-8859-1"?>
<!-- Generator: Adobe Illustrator 19.0.0, SVG Export Plug-In . SVG Version: 6.00 Build 0)  -->
<svg xmlns="http://www.w3.org/2000/svg" xmlns:xlink="http://www.w3.org/1999/xlink" version="1.1" id="Capa_1" x="0px" y="0px" viewBox="0 0 512 512" style="enable-background:new 0 0 512 512;" xml:space="preserve" width="512px" height="512px">
<g>
	<g>
		<path d="M256,155.417c-65.15,0-118.154,53.004-118.154,118.154c0,65.15,53.004,118.154,118.154,118.154    S374.154,338.72,374.154,273.57C374.154,208.42,321.15,155.417,256,155.417z M256,372.032c-54.293,0-98.462-44.17-98.462-98.462    c0-54.292,44.169-98.461,98.462-98.461s98.462,44.17,98.462,98.461S310.293,372.032,256,372.032z" fill="#FFFFFF"/>
	</g>
</g>
<g>
	<g>
		<path d="M315.077,263.581c-5.437,0-9.846,4.408-9.846,9.846v0.144c0,5.438,4.409,9.846,9.846,9.846    c5.437,0,9.846-4.408,9.846-9.846v-0.144C324.923,267.99,320.515,263.581,315.077,263.581z" fill="#FFFFFF"/>
	</g>
</g>
<g>
	<g>
		<path d="M315.525,238.808c-12.328-21.071-35.137-34.16-59.525-34.16c-5.437,0-9.846,4.408-9.846,9.846    c0,5.438,4.409,9.846,9.846,9.846c17.422,0,33.718,9.354,42.529,24.413c1.831,3.131,5.124,4.876,8.508,4.876    c1.689,0,3.4-0.435,4.962-1.35C316.693,249.532,318.271,243.5,315.525,238.808z" fill="#FFFFFF"/>
	</g>
</g>
<g>
	<g>
		<path d="M510.677,268.64c-10.697-18.49-23.434-35.82-37.922-51.622c5.806-9.18,9.182-20.042,9.182-31.684    c0-30.005-46.488-88.59-51.789-95.171c-1.869-2.321-4.689-3.671-7.668-3.671c-2.979,0-5.799,1.35-7.668,3.671    c-3.465,4.302-24.525,30.822-38.699,57.057c-37.823-16.98-78.18-25.587-120.113-25.587c-52.53,0-104.087,14.025-149.095,40.557    C63.222,187.941,26.713,224.751,1.323,268.64c-1.764,3.05-1.764,6.811,0,9.861c25.389,43.889,61.899,80.698,105.581,106.449    c45.009,26.532,96.565,40.557,149.095,40.557s104.087-14.025,149.095-40.557c43.682-25.751,80.192-62.56,105.581-106.449    C512.441,275.451,512.441,271.69,510.677,268.64z M382.77,184.134c0.251-3.143,1.554-9.231,6.6-19.731    c0.073-0.151,0.128-0.305,0.193-0.458c7.9-16.187,21.299-36.119,32.918-51.56c17.791,23.644,39.765,57.82,39.765,72.949    c0,10.145-3.825,19.412-10.101,26.445c-0.19,0.213-0.383,0.422-0.578,0.631c-0.268,0.288-0.538,0.574-0.814,0.855    c-0.19,0.192-0.384,0.378-0.577,0.565c-0.289,0.282-0.579,0.564-0.877,0.837c-0.188,0.172-0.383,0.338-0.574,0.506    c-0.31,0.273-0.618,0.548-0.936,0.811c-0.192,0.159-0.39,0.307-0.585,0.462c-0.51,0.407-1.031,0.799-1.561,1.182    c-0.337,0.241-0.671,0.486-1.014,0.717c-0.205,0.138-0.417,0.267-0.624,0.401c-0.372,0.24-0.745,0.48-1.125,0.708    c-0.187,0.112-0.379,0.218-0.567,0.327c-0.414,0.238-0.828,0.474-1.249,0.697c-0.168,0.09-0.339,0.174-0.509,0.261    c-0.454,0.232-0.91,0.458-1.373,0.672c-0.149,0.069-0.298,0.136-0.448,0.203c-0.492,0.221-0.989,0.433-1.49,0.634    c-0.13,0.052-0.26,0.103-0.39,0.154c-0.528,0.205-1.059,0.399-1.596,0.581c-0.113,0.038-0.227,0.078-0.342,0.116    c-0.554,0.183-1.114,0.352-1.677,0.511c-0.105,0.03-0.209,0.061-0.314,0.09c-0.572,0.156-1.149,0.297-1.728,0.427    c-0.102,0.023-0.205,0.049-0.307,0.071c-0.577,0.125-1.158,0.233-1.742,0.333c-0.111,0.019-0.222,0.041-0.334,0.06    c-0.569,0.092-1.141,0.166-1.715,0.233c-0.13,0.015-0.257,0.035-0.387,0.049c-0.565,0.061-1.133,0.102-1.703,0.139    c-0.138,0.009-0.274,0.024-0.411,0.031c-0.703,0.037-1.408,0.057-2.115,0.057c-21.926,0-39.764-17.838-39.764-39.765    C382.718,184.95,382.742,184.543,382.77,184.134z M256,405.815c-95.716,0-185.117-50.528-234.71-132.245    C70.882,191.854,160.284,141.326,256,141.326c38.968,0,76.475,7.958,111.628,23.665c-2.548,6.531-4.006,12.227-4.446,17.233    c-0.011,0.116-0.023,0.232-0.032,0.348c-0.026,0.33-0.05,0.658-0.067,0.982c-0.034,0.603-0.058,1.199-0.058,1.781    c0,32.785,26.672,59.457,59.456,59.457c0.937,0,1.872-0.028,2.804-0.071c0.35-0.017,0.697-0.044,1.046-0.067    c0.568-0.036,1.135-0.077,1.7-0.13c0.435-0.04,0.866-0.09,1.299-0.139c0.461-0.053,0.92-0.111,1.378-0.175    c0.485-0.068,0.97-0.139,1.451-0.218c0.38-0.063,0.758-0.133,1.136-0.204c0.534-0.099,1.067-0.196,1.597-0.309    c0.246-0.053,0.491-0.114,0.736-0.17c2.021-0.458,4.003-1.019,5.94-1.678c0.271-0.092,0.543-0.179,0.811-0.275    c0.513-0.183,1.019-0.377,1.526-0.573c0.347-0.134,0.692-0.269,1.036-0.41c0.452-0.185,0.901-0.376,1.348-0.572    c0.411-0.18,0.819-0.365,1.225-0.554c0.381-0.177,0.761-0.354,1.137-0.54c0.52-0.255,1.033-0.522,1.546-0.793    c0.26-0.138,0.523-0.27,0.78-0.411c3.015-1.648,5.895-3.555,8.599-5.717c11.686,12.931,22.123,26.937,31.135,41.785    C441.117,355.286,351.716,405.815,256,405.815z" fill="#FFFFFF"/>
	</g>
</g>
<g>
</g>
<g>
</g>
<g>
</g>
<g>
</g>
<g>
</g>
<g>
</g>
<g>
</g>
<g>
</g>
<g>
</g>
<g>
</g>
<g>
</g>
<g>
</g>
<g>
</g>
<g>
</g>
<g>
</g>
</svg>
