<?xml version="1.0" encoding="iso-8859-1"?>
<!-- Generator: Adobe Illustrator 19.0.0, SVG Export Plug-In . SVG Version: 6.00 Build 0)  -->
<svg xmlns="http://www.w3.org/2000/svg" xmlns:xlink="http://www.w3.org/1999/xlink" version="1.1" id="Capa_1" x="0px" y="0px" viewBox="0 0 508 508" style="enable-background:new 0 0 508 508;" xml:space="preserve" width="512px" height="512px">
<g>
	<g>
		<path d="M344.1,90.15v-41c0-13.6-11-24.6-24.6-24.6H188.4c-13.6,0-24.6,11-24.6,24.6v41H0v139.3c0,15.6,6.3,29.7,16.4,40.1v213.9    h475.2v-213.9c10.1-10.3,16.4-24.5,16.4-40.1V90.15H344.1z M180.3,49.25c0-4.5,3.7-8.2,8.2-8.2h131.1c4.5,0,8.2,3.7,8.2,8.2v41    H180.3V49.25z M475.3,467.05H32.8v-185.8c7.5,3.6,15.8,5.6,24.6,5.6h49.2v65.5h65.5v-65.5h172.1v65.5h65.5v-65.5h41    c8.8,0,17.1-2.1,24.6-5.6V467.05z M122.9,336.05v-49.2h32.8v49.2H122.9z M360.5,336.05v-49.2h32.8v49.2H360.5z M491.6,229.45    c0,22.6-18.4,41-41,41H57.4c-22.6,0-41-18.4-41-41v-122.9h475.2V229.45z" fill="#0066b3"/>
	</g>
</g>
<g>
	<g>
		<path d="M278.6,163.85v-32.8h-49.2v32.8h-32.8v49.2h32.8v32.8h49.2v-32.8h32.8v-49.2H278.6z M295,196.65h-32.8v32.8h-16.4v-32.8    H213v-16.4h32.8v-32.8h16.4v32.8H295V196.65z" fill="#0066b3"/>
	</g>
</g>
<g>
	<g>
		<rect x="245.8" y="409.75" width="16.4" height="16.4" fill="#0066b3"/>
	</g>
</g>
<g>
	<g>
		<rect x="278.6" y="409.75" width="16.4" height="16.4" fill="#0066b3"/>
	</g>
</g>
<g>
	<g>
		<rect x="213" y="409.75" width="16.4" height="16.4" fill="#0066b3"/>
	</g>
</g>
<g>
</g>
<g>
</g>
<g>
</g>
<g>
</g>
<g>
</g>
<g>
</g>
<g>
</g>
<g>
</g>
<g>
</g>
<g>
</g>
<g>
</g>
<g>
</g>
<g>
</g>
<g>
</g>
<g>
</g>
</svg>
