<?xml version="1.0" encoding="utf-8"?>
<!-- Generator: Adobe Illustrator 21.1.0, SVG Export Plug-In . SVG Version: 6.00 Build 0)  -->
<svg version="1.1" baseProfile="basic" id="Layer_1"
	 xmlns="http://www.w3.org/2000/svg" xmlns:xlink="http://www.w3.org/1999/xlink" x="0px" y="0px" viewBox="0 0 175 64"
	 xml:space="preserve">
<style type="text/css">
	.st0{fill:#FFFFFF;}
	.st1{opacity:0.34;fill:#FFFFFF;}
</style>
<g>
	<path class="st0" d="M14.9,33c0.3-0.3,0.6-0.6,0.9-0.9C15.4,32.3,15.1,32.6,14.9,33z"/>
	<path class="st0" d="M44.7,32.2c0.2,0.2,0.5,0.5,0.7,0.7C45.2,32.6,44.9,32.3,44.7,32.2z"/>
	<path class="st0" d="M10.6,43.3c0-0.1,0-0.3,0-0.4c0-0.4,0.1-0.8,0.1-1.2c0-0.3,0.1-0.7,0.2-1c0,0,0,0,0-0.1c0.6-3,2-5.6,4-7.7
		c0.2-0.4,0.5-0.7,0.9-0.9c2.5-2.2,5.6-3.6,9.1-3.9v-7v-0.5c-0.9-1-5.2-1.1-5.6-1C11.6,20,5.5,26.3,5.5,34c0,1.8,0.3,3.5,0.9,5.1
		c0,0,0,0,0,0.1c1.1,3,2.6,5.7,4.3,8c0.1,0.2,0.2,0.3,0.3,0.4c-0.3-1.3-0.5-2.6-0.5-3.9C10.6,43.5,10.6,43.4,10.6,43.3z"/>
	<path class="st0" d="M54.8,34c0-7.8-6.2-14.1-14-14.2c-0.4-0.1-3.9-0.1-5.4,1v0.3v7.2c3.5,0.3,6.7,1.7,9.2,3.9
		c0.3,0.2,0.5,0.4,0.7,0.7c2.7,2.8,4.4,6.6,4.4,10.8c0,0.2,0,0.4,0,0.6c0,0.4,0,0.7-0.1,1.1c0,0.1,0,0.2,0,0.2
		c-0.1,1-0.3,1.6-0.3,1.6c0.3-0.4,0.6-0.8,0.9-1.2c1.4-2,2.4-3.9,3-5.5c0.7-1.4,1.2-2.9,1.4-4.5c0-0.1,0-0.2,0-0.2l0,0
		C54.8,35.2,54.8,34.6,54.8,34z"/>
	<path class="st0" d="M35.5,30.8c0,0,0,1.1,1.7,1h4.6h1.6c0.5,0,0.9,0.1,1.3,0.4c-2.5-2.2-5.7-3.7-9.2-3.9V30.8z"/>
	<path class="st0" d="M16.9,31.8h1.4H23c2,0.2,1.9-1.2,1.9-1.2v-2.4c-3.5,0.3-6.6,1.7-9.1,3.9C16.1,31.9,16.5,31.8,16.9,31.8z"/>
	<path class="st0" d="M14.9,33c-2,2.1-3.4,4.7-4,7.7C11.4,38.3,12.5,35.7,14.9,33z"/>
	<path class="st0" d="M10.9,40.7c-0.1,0.3-0.1,0.7-0.2,1C10.8,41.4,10.8,41.1,10.9,40.7z"/>
	<path class="st0" d="M45.8,40c0,1.3-1.1,2.4-2.4,2.4h-1.9h-6v7.9c0,1.3-1.1,2.4-2.4,2.4h-0.2h-5.3h-0.4c-1.3,0-2.4-1.1-2.4-2.4
		v-7.9h-6h-2c-1.3,0-2.4-1.1-2.4-2.4v-2.9c0,0-3,4-3.3,10.7c1.5,1.9,3.2,3.7,4.9,5.2c3.1,2.7,6.2,4.7,8.8,6.1
		c3.1,1.7,5.2,2.5,5.2,2.5c1.8-0.8,3.4-1.6,5-2.5c3.3-1.8,6-3.7,8.3-5.7c2.5-2.1,4.4-4.3,5.9-6.3C48.6,40.4,45.8,37,45.8,37V40z"/>
	<path class="st0" d="M10.6,43.6c0,1.4,0.2,2.7,0.5,3.9c0,0,0.1,0.1,0.1,0.1c-0.2-0.5-0.6-2.1-0.6-4.4
		C10.6,43.4,10.6,43.5,10.6,43.6z"/>
	<path class="st0" d="M49.7,44.2c0-0.2,0-0.4,0-0.6c0-4.2-1.7-8-4.4-10.8C49.2,37,49.8,41.4,49.7,44.2z"/>
	<path class="st0" d="M49.4,47.1c0,0,0.2-0.6,0.3-1.6C49.6,46.1,49.5,46.6,49.4,47.1z"/>
	<path class="st1" d="M49.4,47.1c0,0,0.2-0.6,0.3-1.6C49.6,46.1,49.5,46.6,49.4,47.1z"/>
	<path class="st1" d="M11.3,47.9C11.3,47.8,11.3,47.8,11.3,47.9c0-0.1,0-0.1-0.1-0.2C11.2,47.8,11.3,47.9,11.3,47.9z"/>
	<path class="st0" d="M10.9,40.7C10.9,40.7,10.9,40.7,10.9,40.7C10.9,40.7,10.9,40.7,10.9,40.7z"/>
	<path class="st1" d="M10.9,40.7C10.9,40.7,10.9,40.7,10.9,40.7C10.9,40.7,10.9,40.7,10.9,40.7z"/>
	<path class="st0" d="M10.7,41.7c-0.1,0.4-0.1,0.8-0.1,1.2C10.7,42.5,10.7,42.1,10.7,41.7z"/>
	<path class="st1" d="M10.7,41.7c-0.1,0.4-0.1,0.8-0.1,1.2C10.7,42.5,10.7,42.1,10.7,41.7z"/>
	<circle class="st0" cx="30.2" cy="11.2" r="8.9"/>
</g>
<g>
	<path class="st0" d="M63.6,16.9h3.5v6.4h6.5v-6.4h3.5V33h-3.5v-6.5h-6.5V33h-3.5V16.9z"/>
	<path class="st0" d="M80.1,26.8c0-3.5,2.5-6.4,6.1-6.4c4.1,0,6,3.2,6,6.7c0,0.3,0,0.6,0,0.9h-8.6c0.3,1.6,1.4,2.4,3,2.4
		c1.2,0,2-0.4,3-1.3l2,1.8c-1.1,1.4-2.8,2.3-5,2.3C82.8,33.2,80.1,30.6,80.1,26.8z M88.7,25.8c-0.2-1.6-1.1-2.6-2.6-2.6
		c-1.4,0-2.4,1-2.7,2.6H88.7z"/>
	<path class="st0" d="M94.7,20.7h3.5v1.7c0.8-1,1.8-2,3.6-2c2.6,0,4.2,1.7,4.2,4.6v8h-3.5v-6.9c0-1.7-0.8-2.5-2.1-2.5
		s-2.2,0.9-2.2,2.5V33h-3.5V20.7z"/>
	<path class="st0" d="M109,16.2h3.5v8.9l4.1-4.5h4.2l-4.7,4.8L121,33h-4l-3.2-5l-1.2,1.3V33H109V16.2z"/>
	<path class="st0" d="M122.6,16.2h3.5v6.2c0.8-1,1.8-2,3.6-2c2.6,0,4.2,1.7,4.2,4.6v8h-3.5v-6.9c0-1.7-0.8-2.5-2.1-2.5
		s-2.2,0.9-2.2,2.5V33h-3.5V16.2z"/>
	<path class="st0" d="M136.2,29.4c0-2.7,2-3.9,5-3.9c1.2,0,2.1,0.2,3,0.5v-0.2c0-1.4-0.9-2.3-2.6-2.3c-1.3,0-2.3,0.3-3.4,0.7
		l-0.9-2.7c1.4-0.6,2.7-1,4.8-1c1.9,0,3.3,0.5,4.2,1.4c0.9,0.9,1.3,2.3,1.3,3.9V33h-3.4v-1.3c-0.8,0.9-2,1.6-3.7,1.6
		C138.1,33.2,136.2,31.9,136.2,29.4z M144.2,28.6V28c-0.6-0.3-1.4-0.5-2.2-0.5c-1.5,0-2.4,0.6-2.4,1.7c0,0.9,0.8,1.5,1.9,1.5
		C143.1,30.8,144.2,29.9,144.2,28.6z"/>
	<path class="st0" d="M150.5,20.7h3.5v1.7c0.8-1,1.9-2,3.6-2c1.6,0,2.8,0.7,3.5,2c1.1-1.3,2.4-2,4-2c2.6,0,4.2,1.6,4.2,4.5v8h-3.5
		v-6.9c0-1.7-0.7-2.5-2-2.5s-2.1,0.9-2.1,2.5V33h-3.5v-6.9c0-1.7-0.7-2.5-2-2.5c-1.3,0-2.1,0.9-2.1,2.5V33h-3.5V20.7z"/>
</g>
<g>
	<path class="st0" d="M63.2,41.7h3.5v1.7c0.8-1,1.8-2,3.6-2c2.6,0,4.2,1.7,4.2,4.6v8H71v-6.9c0-1.7-0.8-2.5-2.1-2.5
		s-2.2,0.9-2.2,2.5V54h-3.5V41.7z"/>
	<path class="st0" d="M77.5,37.2H81v6.2c0.8-1,1.8-2,3.6-2c2.6,0,4.2,1.7,4.2,4.6v8h-3.5v-6.9c0-1.7-0.8-2.5-2.1-2.5
		S81,45.5,81,47.1V54h-3.5V37.2z"/>
	<path class="st0" d="M91.1,50.4c0-2.7,2-3.9,5-3.9c1.2,0,2.1,0.2,3,0.5v-0.2c0-1.4-0.9-2.3-2.6-2.3c-1.3,0-2.3,0.3-3.4,0.7
		l-0.9-2.7c1.4-0.6,2.7-1,4.8-1c1.9,0,3.3,0.5,4.2,1.4c0.9,0.9,1.3,2.3,1.3,3.9V54H99v-1.3c-0.8,0.9-2,1.6-3.7,1.6
		C93,54.2,91.1,52.9,91.1,50.4z M99.1,49.7V49c-0.6-0.3-1.4-0.5-2.2-0.5c-1.5,0-2.4,0.6-2.4,1.7c0,0.9,0.8,1.5,1.9,1.5
		C98,51.8,99.1,50.9,99.1,49.7z"/>
	<path class="st0" d="M105.4,41.7h3.5v1.7c0.8-1,1.8-2,3.6-2c2.6,0,4.2,1.7,4.2,4.6v8h-3.5v-6.9c0-1.7-0.8-2.5-2.1-2.5
		s-2.2,0.9-2.2,2.5V54h-3.5V41.7z"/>
	<path class="st0" d="M119.7,37.2h3.5v6.2c0.8-1,1.8-2,3.6-2c2.6,0,4.2,1.7,4.2,4.6v8h-3.5v-6.9c0-1.7-0.8-2.5-2.1-2.5
		c-1.3,0-2.2,0.9-2.2,2.5V54h-3.5V37.2z"/>
</g>
</svg>
